<svg width="521" height="44" viewBox="0 0 521 44" fill="none" xmlns="http://www.w3.org/2000/svg">
<rect x="1" y="1" width="42" height="42" rx="7" fill="#FFF5F0"/>
<rect x="1" y="1" width="42" height="42" rx="7" stroke="#262626" stroke-width="2"/>
<path d="M11.5 18.6691V27.25C11.5 28.9069 12.8431 30.25 14.5 30.25H29.5C31.1569 30.25 32.5 28.9069 32.5 27.25V18.6691L23.5723 24.1631C22.6081 24.7564 21.3919 24.7564 20.4277 24.1631L11.5 18.6691Z" fill="#262626"/>
<path d="M32.5 16.9078V16.75C32.5 15.0931 31.1569 13.75 29.5 13.75H14.5C12.8431 13.75 11.5 15.0931 11.5 16.75V16.9078L21.2139 22.8856C21.696 23.1823 22.304 23.1823 22.7861 22.8856L32.5 16.9078Z" fill="#262626"/>
<path d="M59.8 29V23.46C59.8 22.82 59.5933 22.2933 59.18 21.88C58.78 21.4667 58.26 21.26 57.62 21.26C57.1933 21.26 56.8133 21.3533 56.48 21.54C56.1467 21.7267 55.8867 21.9867 55.7 22.32C55.5133 22.6533 55.42 23.0333 55.42 23.46L54.56 22.98C54.56 22.2467 54.72 21.6 55.04 21.04C55.36 20.4667 55.8 20.02 56.36 19.7C56.9333 19.3667 57.5733 19.2 58.28 19.2C59 19.2 59.64 19.36 60.2 19.68C60.76 20 61.2 20.4467 61.52 21.02C61.84 21.58 62 22.2333 62 22.98V29H59.8ZM53.22 29V14.6H55.42V29H53.22ZM68.6956 29.2C67.7356 29.2 66.869 28.9867 66.0956 28.56C65.3356 28.12 64.729 27.52 64.2756 26.76C63.8356 26 63.6156 25.1467 63.6156 24.2C63.6156 23.2533 63.8356 22.4067 64.2756 21.66C64.7156 20.9 65.309 20.3 66.0556 19.86C66.8156 19.42 67.6556 19.2 68.5756 19.2C69.469 19.2 70.2556 19.4067 70.9356 19.82C71.629 20.2333 72.169 20.8 72.5556 21.52C72.9556 22.24 73.1556 23.06 73.1556 23.98C73.1556 24.14 73.1423 24.3067 73.1156 24.48C73.1023 24.64 73.0756 24.82 73.0356 25.02H65.1556V23.22H71.8956L71.0756 23.94C71.049 23.3533 70.9356 22.86 70.7356 22.46C70.5356 22.06 70.249 21.7533 69.8756 21.54C69.5156 21.3267 69.069 21.22 68.5356 21.22C67.9756 21.22 67.489 21.34 67.0756 21.58C66.6623 21.82 66.3423 22.16 66.1156 22.6C65.889 23.0267 65.7756 23.54 65.7756 24.14C65.7756 24.74 65.8956 25.2667 66.1356 25.72C66.3756 26.1733 66.7156 26.5267 67.1556 26.78C67.5956 27.02 68.1023 27.14 68.6756 27.14C69.169 27.14 69.6223 27.0533 70.0356 26.88C70.4623 26.7067 70.8223 26.4533 71.1156 26.12L72.5156 27.54C72.049 28.0867 71.4823 28.5 70.8156 28.78C70.149 29.06 69.4423 29.2 68.6956 29.2ZM74.9192 29V14.6H77.1192V29H74.9192ZM79.5677 29V14.6H81.7677V29H79.5677ZM88.6161 29.2C87.6828 29.2 86.8361 28.98 86.0761 28.54C85.3161 28.0867 84.7094 27.48 84.2561 26.72C83.8161 25.96 83.5961 25.1133 83.5961 24.18C83.5961 23.2467 83.8161 22.4067 84.2561 21.66C84.7094 20.9133 85.3161 20.32 86.0761 19.88C86.8361 19.4267 87.6828 19.2 88.6161 19.2C89.5628 19.2 90.4161 19.42 91.1761 19.86C91.9361 20.3 92.5361 20.9 92.9761 21.66C93.4294 22.4067 93.6561 23.2467 93.6561 24.18C93.6561 25.1133 93.4294 25.96 92.9761 26.72C92.5361 27.48 91.9361 28.0867 91.1761 28.54C90.4161 28.98 89.5628 29.2 88.6161 29.2ZM88.6161 27.08C89.1628 27.08 89.6428 26.96 90.0561 26.72C90.4828 26.4667 90.8094 26.12 91.0361 25.68C91.2761 25.24 91.3961 24.74 91.3961 24.18C91.3961 23.62 91.2761 23.1267 91.0361 22.7C90.7961 22.2733 90.4694 21.94 90.0561 21.7C89.6428 21.4467 89.1628 21.32 88.6161 21.32C88.0828 21.32 87.6028 21.4467 87.1761 21.7C86.7628 21.94 86.4361 22.2733 86.1961 22.7C85.9694 23.1267 85.8561 23.62 85.8561 24.18C85.8561 24.74 85.9694 25.24 86.1961 25.68C86.4361 26.12 86.7628 26.4667 87.1761 26.72C87.6028 26.96 88.0828 27.08 88.6161 27.08ZM101.306 27.24C100.799 27.24 100.332 27.1133 99.9056 26.86C99.479 26.5933 99.1323 26.24 98.8656 25.8C98.6123 25.3467 98.4856 24.8467 98.4856 24.3C98.4856 23.74 98.6123 23.24 98.8656 22.8C99.1323 22.3467 99.479 21.9867 99.9056 21.72C100.332 21.4533 100.799 21.32 101.306 21.32C101.946 21.32 102.459 21.4733 102.846 21.78C103.246 22.0733 103.446 22.5333 103.446 23.16V25.4C103.446 26.0133 103.252 26.4733 102.866 26.78C102.479 27.0867 101.959 27.24 101.306 27.24ZM101.426 25.74C101.839 25.74 102.166 25.6067 102.406 25.34C102.659 25.06 102.786 24.7067 102.786 24.28C102.786 23.84 102.659 23.4867 102.406 23.22C102.166 22.9533 101.839 22.82 101.426 22.82C101.026 22.82 100.699 22.96 100.446 23.24C100.192 23.5067 100.066 23.8533 100.066 24.28C100.066 24.7067 100.192 25.06 100.446 25.34C100.699 25.6067 101.026 25.74 101.426 25.74ZM102.946 27.12V25.6L103.166 24.2L102.946 22.84V21.44H104.486V27.12H102.946ZM104.866 28.1L106.066 29.32C105.479 29.8267 104.812 30.2133 104.066 30.48C103.332 30.7467 102.539 30.88 101.686 30.88C100.766 30.88 99.9056 30.7133 99.1056 30.38C98.3056 30.0467 97.6056 29.5867 97.0056 29C96.4056 28.4 95.939 27.7 95.6056 26.9C95.2723 26.1 95.1056 25.2333 95.1056 24.3C95.1056 23.3533 95.2723 22.48 95.6056 21.68C95.9523 20.88 96.4323 20.18 97.0456 19.58C97.659 18.98 98.3723 18.5133 99.1856 18.18C99.999 17.8467 100.872 17.68 101.806 17.68C103.059 17.68 104.159 17.96 105.106 18.52C106.066 19.08 106.812 19.8533 107.346 20.84C107.892 21.8267 108.166 22.96 108.166 24.24C108.166 24.8133 108.106 25.34 107.986 25.82C107.879 26.2867 107.699 26.72 107.446 27.12L105.566 27.06C105.766 26.8067 105.926 26.5333 106.046 26.24C106.166 25.9467 106.252 25.6267 106.306 25.28C106.372 24.92 106.406 24.5267 106.406 24.1C106.406 23.0867 106.226 22.2333 105.866 21.54C105.519 20.8333 105.006 20.3 104.326 19.94C103.646 19.5667 102.819 19.38 101.846 19.38C100.846 19.38 99.979 19.58 99.2456 19.98C98.5123 20.38 97.9456 20.9467 97.5456 21.68C97.159 22.4133 96.9656 23.2933 96.9656 24.32C96.9656 25.32 97.1523 26.1867 97.5256 26.92C97.9123 27.64 98.459 28.2 99.1656 28.6C99.8723 28.9867 100.699 29.18 101.646 29.18C102.312 29.18 102.912 29.0933 103.446 28.92C103.979 28.7333 104.452 28.46 104.866 28.1ZM103.666 25.72H107.446V27.12H103.666V25.72ZM110.232 29V14.6H112.432V29H110.232ZM114.9 29V19.4H117.1V29H114.9ZM116 17.64C115.627 17.64 115.313 17.5133 115.06 17.26C114.82 17.0067 114.7 16.6933 114.7 16.32C114.7 15.9467 114.82 15.6333 115.06 15.38C115.313 15.1267 115.627 15 116 15C116.387 15 116.7 15.1267 116.94 15.38C117.18 15.6333 117.3 15.9467 117.3 16.32C117.3 16.6933 117.18 17.0067 116.94 17.26C116.7 17.5133 116.387 17.64 116 17.64ZM121.028 29V15.4H123.228V29H121.028ZM118.728 21.4V19.4H131.328V21.4H118.728ZM126.828 29V15.4H129.028V29H126.828ZM132.927 29V14.6H135.127V29H132.927ZM142.035 29.2C141.075 29.2 140.209 28.9867 139.435 28.56C138.675 28.12 138.069 27.52 137.615 26.76C137.175 26 136.955 25.1467 136.955 24.2C136.955 23.2533 137.175 22.4067 137.615 21.66C138.055 20.9 138.649 20.3 139.395 19.86C140.155 19.42 140.995 19.2 141.915 19.2C142.809 19.2 143.595 19.4067 144.275 19.82C144.969 20.2333 145.509 20.8 145.895 21.52C146.295 22.24 146.495 23.06 146.495 23.98C146.495 24.14 146.482 24.3067 146.455 24.48C146.442 24.64 146.415 24.82 146.375 25.02H138.495V23.22H145.235L144.415 23.94C144.389 23.3533 144.275 22.86 144.075 22.46C143.875 22.06 143.589 21.7533 143.215 21.54C142.855 21.3267 142.409 21.22 141.875 21.22C141.315 21.22 140.829 21.34 140.415 21.58C140.002 21.82 139.682 22.16 139.455 22.6C139.229 23.0267 139.115 23.54 139.115 24.14C139.115 24.74 139.235 25.2667 139.475 25.72C139.715 26.1733 140.055 26.5267 140.495 26.78C140.935 27.02 141.442 27.14 142.015 27.14C142.509 27.14 142.962 27.0533 143.375 26.88C143.802 26.7067 144.162 26.4533 144.455 26.12L145.855 27.54C145.389 28.0867 144.822 28.5 144.155 28.78C143.489 29.06 142.782 29.2 142.035 29.2ZM148.259 29V14.6H150.459V29H148.259ZM157.368 29.2C156.408 29.2 155.541 28.9867 154.768 28.56C154.008 28.12 153.401 27.52 152.948 26.76C152.508 26 152.288 25.1467 152.288 24.2C152.288 23.2533 152.508 22.4067 152.948 21.66C153.388 20.9 153.981 20.3 154.728 19.86C155.488 19.42 156.328 19.2 157.248 19.2C158.141 19.2 158.928 19.4067 159.608 19.82C160.301 20.2333 160.841 20.8 161.228 21.52C161.628 22.24 161.828 23.06 161.828 23.98C161.828 24.14 161.814 24.3067 161.787 24.48C161.774 24.64 161.748 24.82 161.708 25.02H153.828V23.22H160.568L159.748 23.94C159.721 23.3533 159.608 22.86 159.408 22.46C159.208 22.06 158.921 21.7533 158.548 21.54C158.188 21.3267 157.741 21.22 157.208 21.22C156.648 21.22 156.161 21.34 155.748 21.58C155.334 21.82 155.014 22.16 154.788 22.6C154.561 23.0267 154.448 23.54 154.448 24.14C154.448 24.74 154.568 25.2667 154.808 25.72C155.048 26.1733 155.388 26.5267 155.828 26.78C156.268 27.02 156.774 27.14 157.348 27.14C157.841 27.14 158.294 27.0533 158.708 26.88C159.134 26.7067 159.494 26.4533 159.788 26.12L161.188 27.54C160.721 28.0867 160.154 28.5 159.488 28.78C158.821 29.06 158.114 29.2 157.368 29.2ZM167.611 29.2C166.744 29.2 165.958 28.98 165.251 28.54C164.558 28.1 164.004 27.5067 163.591 26.76C163.191 26 162.991 25.1533 162.991 24.22C162.991 23.2733 163.191 22.4267 163.591 21.68C164.004 20.92 164.558 20.32 165.251 19.88C165.958 19.4267 166.744 19.2 167.611 19.2C168.344 19.2 168.991 19.36 169.551 19.68C170.124 19.9867 170.578 20.4133 170.911 20.96C171.244 21.5067 171.411 22.1267 171.411 22.82V25.58C171.411 26.2733 171.244 26.8933 170.911 27.44C170.591 27.9867 170.144 28.42 169.571 28.74C168.998 29.0467 168.344 29.2 167.611 29.2ZM167.971 27.12C168.784 27.12 169.438 26.8467 169.931 26.3C170.438 25.7533 170.691 25.0533 170.691 24.2C170.691 23.6267 170.578 23.12 170.351 22.68C170.124 22.24 169.804 21.9 169.391 21.66C168.991 21.4067 168.518 21.28 167.971 21.28C167.438 21.28 166.964 21.4067 166.551 21.66C166.151 21.9 165.831 22.24 165.591 22.68C165.364 23.12 165.251 23.6267 165.251 24.2C165.251 24.7733 165.364 25.28 165.591 25.72C165.831 26.16 166.151 26.5067 166.551 26.76C166.964 27 167.438 27.12 167.971 27.12ZM170.551 29V26.42L170.931 24.08L170.551 21.76V19.4H172.751V29H170.551ZM175.193 29V19.4H177.393V29H175.193ZM177.393 23.66L176.633 23.28C176.633 22.0667 176.899 21.0867 177.433 20.34C177.979 19.58 178.799 19.2 179.893 19.2C180.373 19.2 180.806 19.2867 181.193 19.46C181.579 19.6333 181.939 19.9133 182.273 20.3L180.833 21.78C180.659 21.5933 180.466 21.46 180.253 21.38C180.039 21.3 179.793 21.26 179.513 21.26C178.899 21.26 178.393 21.4533 177.993 21.84C177.593 22.2267 177.393 22.8333 177.393 23.66ZM189.917 29V23.46C189.917 22.82 189.711 22.2933 189.297 21.88C188.897 21.4667 188.377 21.26 187.737 21.26C187.311 21.26 186.931 21.3533 186.597 21.54C186.264 21.7267 186.004 21.9867 185.817 22.32C185.631 22.6533 185.537 23.0333 185.537 23.46L184.677 22.98C184.677 22.2467 184.837 21.6 185.157 21.04C185.477 20.4667 185.917 20.02 186.477 19.7C187.051 19.3667 187.691 19.2 188.397 19.2C189.117 19.2 189.757 19.3867 190.317 19.76C190.877 20.12 191.317 20.5933 191.637 21.18C191.957 21.7533 192.117 22.3533 192.117 22.98V29H189.917ZM183.337 29V19.4H185.537V29H183.337ZM198.813 29.2C197.853 29.2 196.986 28.9867 196.213 28.56C195.453 28.12 194.846 27.52 194.393 26.76C193.953 26 193.733 25.1467 193.733 24.2C193.733 23.2533 193.953 22.4067 194.393 21.66C194.833 20.9 195.426 20.3 196.173 19.86C196.933 19.42 197.773 19.2 198.693 19.2C199.586 19.2 200.373 19.4067 201.053 19.82C201.746 20.2333 202.286 20.8 202.673 21.52C203.073 22.24 203.273 23.06 203.273 23.98C203.273 24.14 203.259 24.3067 203.233 24.48C203.219 24.64 203.193 24.82 203.153 25.02H195.273V23.22H202.013L201.193 23.94C201.166 23.3533 201.053 22.86 200.853 22.46C200.653 22.06 200.366 21.7533 199.993 21.54C199.633 21.3267 199.186 21.22 198.653 21.22C198.093 21.22 197.606 21.34 197.193 21.58C196.779 21.82 196.459 22.16 196.233 22.6C196.006 23.0267 195.893 23.54 195.893 24.14C195.893 24.74 196.013 25.2667 196.253 25.72C196.493 26.1733 196.833 26.5267 197.273 26.78C197.713 27.02 198.219 27.14 198.793 27.14C199.286 27.14 199.739 27.0533 200.153 26.88C200.579 26.7067 200.939 26.4533 201.233 26.12L202.633 27.54C202.166 28.0867 201.599 28.5 200.933 28.78C200.266 29.06 199.559 29.2 198.813 29.2ZM205.036 29V19.4H207.236V29H205.036ZM207.236 23.66L206.476 23.28C206.476 22.0667 206.743 21.0867 207.276 20.34C207.823 19.58 208.643 19.2 209.736 19.2C210.216 19.2 210.65 19.2867 211.036 19.46C211.423 19.6333 211.783 19.9133 212.116 20.3L210.676 21.78C210.503 21.5933 210.31 21.46 210.096 21.38C209.883 21.3 209.636 21.26 209.356 21.26C208.743 21.26 208.236 21.4533 207.836 21.84C207.436 22.2267 207.236 22.8333 207.236 23.66ZM216.106 29.2C215.573 29.2 215.059 29.1333 214.566 29C214.073 28.8533 213.619 28.6533 213.206 28.4C212.793 28.1333 212.433 27.8133 212.126 27.44L213.526 26.04C213.859 26.4267 214.239 26.72 214.666 26.92C215.106 27.1067 215.599 27.2 216.146 27.2C216.639 27.2 217.013 27.1267 217.266 26.98C217.519 26.8333 217.646 26.62 217.646 26.34C217.646 26.0467 217.526 25.82 217.286 25.66C217.046 25.5 216.733 25.3667 216.346 25.26C215.973 25.14 215.573 25.02 215.146 24.9C214.733 24.78 214.333 24.62 213.946 24.42C213.573 24.2067 213.266 23.92 213.026 23.56C212.786 23.2 212.666 22.7333 212.666 22.16C212.666 21.5467 212.806 21.02 213.086 20.58C213.379 20.14 213.786 19.8 214.306 19.56C214.839 19.32 215.473 19.2 216.206 19.2C216.979 19.2 217.659 19.34 218.246 19.62C218.846 19.8867 219.346 20.2933 219.746 20.84L218.346 22.24C218.066 21.8933 217.746 21.6333 217.386 21.46C217.026 21.2867 216.613 21.2 216.146 21.2C215.706 21.2 215.366 21.2667 215.126 21.4C214.886 21.5333 214.766 21.7267 214.766 21.98C214.766 22.2467 214.886 22.4533 215.126 22.6C215.366 22.7467 215.673 22.8733 216.046 22.98C216.433 23.0867 216.833 23.2067 217.246 23.34C217.673 23.46 218.073 23.6333 218.446 23.86C218.833 24.0733 219.146 24.3667 219.386 24.74C219.626 25.1 219.746 25.5733 219.746 26.16C219.746 27.0933 219.419 27.8333 218.766 28.38C218.113 28.9267 217.226 29.2 216.106 29.2ZM223.24 29.2C222.813 29.2 222.46 29.06 222.18 28.78C221.913 28.4867 221.78 28.1333 221.78 27.72C221.78 27.2933 221.913 26.94 222.18 26.66C222.46 26.38 222.813 26.24 223.24 26.24C223.667 26.24 224.013 26.38 224.28 26.66C224.56 26.94 224.7 27.2933 224.7 27.72C224.7 28.1333 224.56 28.4867 224.28 28.78C224.013 29.06 223.667 29.2 223.24 29.2ZM231.449 29.2C230.502 29.2 229.642 28.98 228.869 28.54C228.109 28.1 227.509 27.5 227.069 26.74C226.629 25.98 226.409 25.1333 226.409 24.2C226.409 23.2533 226.629 22.4067 227.069 21.66C227.509 20.9 228.109 20.3 228.869 19.86C229.642 19.42 230.502 19.2 231.449 19.2C232.195 19.2 232.889 19.3467 233.529 19.64C234.182 19.92 234.735 20.3267 235.189 20.86L233.749 22.32C233.469 21.9867 233.129 21.74 232.729 21.58C232.342 21.4067 231.915 21.32 231.449 21.32C230.902 21.32 230.415 21.4467 229.989 21.7C229.575 21.94 229.249 22.2733 229.009 22.7C228.782 23.1267 228.669 23.6267 228.669 24.2C228.669 24.76 228.782 25.26 229.009 25.7C229.249 26.1267 229.575 26.4667 229.989 26.72C230.415 26.96 230.902 27.08 231.449 27.08C231.915 27.08 232.342 27 232.729 26.84C233.129 26.6667 233.469 26.4133 233.749 26.08L235.189 27.54C234.735 28.0733 234.182 28.4867 233.529 28.78C232.889 29.06 232.195 29.2 231.449 29.2ZM240.979 29.2C240.046 29.2 239.199 28.98 238.439 28.54C237.679 28.0867 237.073 27.48 236.619 26.72C236.179 25.96 235.959 25.1133 235.959 24.18C235.959 23.2467 236.179 22.4067 236.619 21.66C237.073 20.9133 237.679 20.32 238.439 19.88C239.199 19.4267 240.046 19.2 240.979 19.2C241.926 19.2 242.779 19.42 243.539 19.86C244.299 20.3 244.899 20.9 245.339 21.66C245.793 22.4067 246.019 23.2467 246.019 24.18C246.019 25.1133 245.793 25.96 245.339 26.72C244.899 27.48 244.299 28.0867 243.539 28.54C242.779 28.98 241.926 29.2 240.979 29.2ZM240.979 27.08C241.526 27.08 242.006 26.96 242.419 26.72C242.846 26.4667 243.173 26.12 243.399 25.68C243.639 25.24 243.759 24.74 243.759 24.18C243.759 23.62 243.639 23.1267 243.399 22.7C243.159 22.2733 242.833 21.94 242.419 21.7C242.006 21.4467 241.526 21.32 240.979 21.32C240.446 21.32 239.966 21.4467 239.539 21.7C239.126 21.94 238.799 22.2733 238.559 22.7C238.333 23.1267 238.219 23.62 238.219 24.18C238.219 24.74 238.333 25.24 238.559 25.68C238.799 26.12 239.126 26.4667 239.539 26.72C239.966 26.96 240.446 27.08 240.979 27.08ZM247.849 29V19.4H250.049V29H247.849ZM254.229 29V23.28C254.229 22.64 254.029 22.1467 253.629 21.8C253.229 21.44 252.736 21.26 252.149 21.26C251.749 21.26 251.389 21.34 251.069 21.5C250.762 21.66 250.516 21.8933 250.329 22.2C250.142 22.4933 250.049 22.8533 250.049 23.28L249.189 22.8C249.189 22.0667 249.349 21.4333 249.669 20.9C249.989 20.3667 250.422 19.9533 250.969 19.66C251.516 19.3533 252.129 19.2 252.809 19.2C253.489 19.2 254.102 19.3467 254.649 19.64C255.196 19.9333 255.629 20.3467 255.949 20.88C256.269 21.4133 256.429 22.0533 256.429 22.8V29H254.229ZM260.609 29V23.28C260.609 22.64 260.409 22.1467 260.009 21.8C259.609 21.44 259.116 21.26 258.529 21.26C258.142 21.26 257.789 21.34 257.469 21.5C257.149 21.66 256.896 21.8933 256.709 22.2C256.522 22.4933 256.429 22.8533 256.429 23.28L255.189 22.8C255.256 22.0667 255.469 21.4333 255.829 20.9C256.189 20.3667 256.649 19.9533 257.209 19.66C257.782 19.3533 258.409 19.2 259.089 19.2C259.782 19.2 260.409 19.3467 260.969 19.64C261.529 19.9333 261.976 20.3467 262.309 20.88C262.642 21.4133 262.809 22.0533 262.809 22.8V29H260.609Z" fill="#262626"/>
</svg>
