<svg width="200" height="60" viewBox="0 0 200 60" fill="none" xmlns="http://www.w3.org/2000/svg">
<rect x="1" y="1" width="58" height="58" rx="9" fill="#FFDECC"/>
<rect x="1" y="1" width="58" height="58" rx="9" stroke="#262626" stroke-width="2"/>
<g clip-path="url(#clip0_121_1855)">
<path d="M42 30C42 23.3726 36.6274 18 30 18C23.3726 18 18 23.3726 18 30C18 35.9895 22.3882 40.954 28.125 41.8542V33.4687H25.0781V30H28.125V27.3562C28.125 24.3488 29.9166 22.6875 32.6576 22.6875C33.9701 22.6875 35.3438 22.9219 35.3438 22.9219V25.875H33.8306C32.34 25.875 31.875 26.8001 31.875 27.75V30H35.2031L34.6711 33.4687H31.875V41.8542C37.6118 40.954 42 35.9895 42 30Z" fill="#262626"/>
</g>
<rect x="71" y="1" width="58" height="58" rx="9" fill="#FFDECC"/>
<rect x="71" y="1" width="58" height="58" rx="9" stroke="#262626" stroke-width="2"/>
<path d="M95.5502 39.7502C104.605 39.7502 109.558 32.2469 109.558 25.7421C109.558 25.5312 109.554 25.3155 109.544 25.1046C110.508 24.4077 111.339 23.5445 112 22.5555C111.103 22.9548 110.15 23.2156 109.174 23.329C110.201 22.7132 110.971 21.7457 111.339 20.606C110.373 21.1788 109.316 21.5829 108.213 21.8009C107.471 21.0118 106.489 20.4894 105.42 20.3143C104.35 20.1392 103.253 20.3213 102.298 20.8323C101.342 21.3434 100.582 22.1549 100.134 23.1416C99.6859 24.1282 99.5754 25.2349 99.8195 26.2905C97.8625 26.1923 95.9479 25.6839 94.2 24.7983C92.452 23.9127 90.9097 22.6697 89.673 21.1498C89.0444 22.2335 88.8521 23.5159 89.135 24.7363C89.418 25.9568 90.1551 27.0237 91.1964 27.7202C90.4146 27.6954 89.65 27.4849 88.9656 27.1062V27.1671C88.9649 28.3044 89.3581 29.4068 90.0783 30.287C90.7985 31.1672 91.8013 31.7708 92.9162 31.9952C92.1921 32.1934 91.432 32.2222 90.6948 32.0796C91.0095 33.0577 91.6216 33.9131 92.4458 34.5266C93.27 35.14 94.2651 35.4808 95.2923 35.5015C93.5484 36.8714 91.3942 37.6144 89.1766 37.6109C88.7833 37.6103 88.3904 37.5861 88 37.5387C90.2529 38.984 92.8735 39.7516 95.5502 39.7502Z" fill="#262626"/>
<rect x="141" y="1" width="58" height="58" rx="9" fill="#FFDECC"/>
<rect x="141" y="1" width="58" height="58" rx="9" stroke="#262626" stroke-width="2"/>
<g clip-path="url(#clip1_121_1855)">
<path d="M180.223 18H159.772C158.792 18 158 18.7734 158 19.7297V40.2656C158 41.2219 158.792 42 159.772 42H180.223C181.203 42 182 41.2219 182 40.2703V19.7297C182 18.7734 181.203 18 180.223 18ZM165.12 38.4516H161.558V26.9953H165.12V38.4516ZM163.339 25.4344C162.195 25.4344 161.272 24.5109 161.272 23.3719C161.272 22.2328 162.195 21.3094 163.339 21.3094C164.478 21.3094 165.402 22.2328 165.402 23.3719C165.402 24.5062 164.478 25.4344 163.339 25.4344ZM178.452 38.4516H174.894V32.8828C174.894 31.5562 174.87 29.8453 173.042 29.8453C171.191 29.8453 170.909 31.2937 170.909 32.7891V38.4516H167.356V26.9953H170.769V28.5609H170.816C171.289 27.6609 172.452 26.7094 174.181 26.7094C177.786 26.7094 178.452 29.0813 178.452 32.1656V38.4516Z" fill="#262626"/>
</g>
<defs>
<clipPath id="clip0_121_1855">
<rect width="24" height="24" fill="white" transform="translate(18 18)"/>
</clipPath>
<clipPath id="clip1_121_1855">
<rect width="24" height="24" fill="white" transform="translate(158 18)"/>
</clipPath>
</defs>
</svg>
